<svg xmlns="http://www.w3.org/2000/svg" width="1200" height="630" viewBox="0 0 1200 630">
  <defs>
    <linearGradient id="bg" x1="0" y1="0" x2="0" y2="1">
      <stop stop-color="#f7faf9"/>
      <stop offset="1" stop-color="#eef7f5"/>
    </linearGradient>
    <linearGradient id="brand" x1="0" y1="0" x2="1" y2="1">
      <stop stop-color="#047857"/>
      <stop offset=".58" stop-color="#14b8a6"/>
      <stop offset="1" stop-color="#ec4899"/>
    </linearGradient>
    <pattern id="grid" width="54" height="54" patternUnits="userSpaceOnUse">
      <path d="M54 0H0V54" fill="none" stroke="#101828" stroke-opacity=".045"/>
    </pattern>
  </defs>
  <rect width="1200" height="630" fill="url(#bg)"/>
  <rect width="1200" height="630" fill="url(#grid)"/>
  <circle cx="1040" cy="120" r="290" fill="#14b8a6" opacity=".11"/>
  <circle cx="10" cy="650" r="300" fill="#ec4899" opacity=".08"/>
  <g transform="translate(80 78)">
    <rect width="76" height="76" rx="19" fill="#111827"/>
    <text x="38" y="53" text-anchor="middle" font-family="Arial,sans-serif" font-size="42" font-weight="800" fill="url(#brand)">TT</text>
    <text x="98" y="34" font-family="Arial,sans-serif" font-size="32" font-weight="700" fill="#101828">Ting Ting Soft</text>
    <text x="100" y="58" font-family="Arial,sans-serif" font-size="13" font-weight="700" letter-spacing="1.2" fill="#667085">CÔNG TY TNHH GIẢI PHÁP PHẦN MỀM TING TING</text>
  </g>
  <text x="80" y="300" font-family="Arial,sans-serif" font-size="72" font-weight="750" letter-spacing="-3" fill="#101828">Số hóa quy trình,</text>
  <text x="80" y="382" font-family="Arial,sans-serif" font-size="70" font-weight="750" letter-spacing="-3" fill="#047857">tăng năng suất.</text>
  <text x="82" y="460" font-family="Arial,sans-serif" font-size="26" fill="#667085">Phần mềm theo quy trình · Tự động hóa · Dữ liệu và AI</text>
  <g transform="translate(910 336)" fill="none">
    <circle r="160" stroke="#14b8a6" stroke-opacity=".32" stroke-width="3"/>
    <circle r="115" stroke="#0891b2" stroke-opacity=".32" stroke-width="3"/>
    <circle r="72" stroke="#ec4899" stroke-opacity=".28" stroke-width="3"/>
    <path d="M-100-78L4-1 98-52M4-1 52 112M4-1-74 90M-100-78 98-52M52 112-74 90" stroke="#0891b2" stroke-opacity=".44" stroke-width="3"/>
    <circle cx="-100" cy="-78" r="9" fill="#0891b2" stroke="#fff" stroke-width="3"/>
    <circle cx="98" cy="-52" r="9" fill="#14b8a6" stroke="#fff" stroke-width="3"/>
    <circle cx="52" cy="112" r="9" fill="#ec4899" stroke="#fff" stroke-width="3"/>
    <circle cx="-74" cy="90" r="9" fill="#047857" stroke="#fff" stroke-width="3"/>
    <circle cx="4" cy="-1" r="9" fill="#101828" stroke="#fff" stroke-width="3"/>
  </g>
</svg>
